<svg width="600" height="400" viewBox="0 0 600 400" fill="none" xmlns="http://www.w3.org/2000/svg">
  <rect width="600" height="400" fill="#F3F3F3"/>
  
  {/* Background Pattern */}
  <path d="M0 0L600 400M0 400L600 0" stroke="#E6F7F2" stroke-width="2"/>
  
  {/* Herb Illustrations */}
  <g transform="translate(200,100)">
    <path d="M0 0C20 -20 40 -20 60 0C40 20 20 20 0 0Z" fill="#7FD1B9"/>
    <path d="M-10 30C10 10 30 10 50 30C30 50 10 50 -10 30Z" fill="#7FD1B9"/>
    <path d="M20 50C40 30 60 30 80 50C60 70 40 70 20 50Z" fill="#7FD1B9"/>
  </g>
  
  <g transform="translate(300,200)">
    <path d="M0 0C20 -20 40 -20 60 0C40 20 20 20 0 0Z" fill="#FFB86C"/>
    <path d="M-10 30C10 10 30 10 50 30C30 50 10 50 -10 30Z" fill="#FFB86C"/>
    <path d="M20 50C40 30 60 30 80 50C60 70 40 70 20 50Z" fill="#FFB86C"/>
  </g>
  
  {/* Decorative Circles */}
  <circle cx="150" cy="150" r="40" fill="#7FD1B9" fill-opacity="0.2"/>
  <circle cx="450" cy="250" r="60" fill="#FFB86C" fill-opacity="0.2"/>
  <circle cx="300" cy="350" r="30" fill="#7FD1B9" fill-opacity="0.2"/>
</svg> 