<svg width="400" height="400" viewBox="0 0 400 400" fill="none" xmlns="http://www.w3.org/2000/svg">
  <rect width="400" height="400" fill="#F3F3F3"/>
  
  {/* Inhaler Body */}
  <path d="M150 100L250 100C270 100 280 110 280 130L280 270C280 290 270 300 250 300L150 300C130 300 120 290 120 270L120 130C120 110 130 100 150 100Z" 
    fill="#FFB86C"
    stroke="#2E2E2E"
    stroke-width="4"/>
  
  {/* Mouthpiece */}
  <path d="M180 80L220 80C230 80 235 85 235 95L235 105L165 105L165 95C165 85 170 80 180 80Z"
    fill="#7FD1B9"
    stroke="#2E2E2E"
    stroke-width="4"/>
  
  {/* Energy Burst Elements */}
  <g transform="translate(200,200)">
    {/* Dynamic Energy Swirls */}
    <path d="M-60 -60Q-30 -90 0 -60Q30 -30 60 -60" 
      stroke="#7FD1B9" 
      stroke-width="3"
      fill="none"
      stroke-linecap="round">
      <animate
        attributeName="d"
        values="M-60 -60Q-30 -90 0 -60Q30 -30 60 -60;M-60 -50Q-30 -80 0 -50Q30 -20 60 -50;M-60 -60Q-30 -90 0 -60Q30 -30 60 -60"
        dur="2s"
        repeatCount="indefinite"
      />
    </path>
    
    {/* Citrus Segments */}
    <g>
      <path d="M-20 20L0 0L20 20" stroke="#7FD1B9" stroke-width="2"/>
      <path d="M-28 28L0 0L28 28" stroke="#7FD1B9" stroke-width="2"/>
      <path d="M-35 35L0 0L35 35" stroke="#7FD1B9" stroke-width="2"/>
      <animate
        attributeName="transform"
        type="rotate"
        values="0;360"
        dur="10s"
        repeatCount="indefinite"
      />
    </g>
  </g>
  
  {/* Ginger Root Elements */}
  <path d="M160 220C140 240 150 260 170 270C190 280 210 260 200 240C190 220 180 230 160 220" 
    fill="#FFB86C"
    fill-opacity="0.3"
    stroke="#FFB86C"
    stroke-width="2">
    <animate
      attributeName="fill-opacity"
      values="0.3;0.6;0.3"
      dur="3s"
      repeatCount="indefinite"
    />
  </path>
  
  {/* Dynamic Energy Lines */}
  <g>
    <line x1="120" y1="200" x2="280" y2="200" stroke="#7FD1B9" stroke-width="2" stroke-dasharray="4 6">
      <animate
        attributeName="stroke-dashoffset"
        values="0;20"
        dur="1s"
        repeatCount="indefinite"
      />
    </line>
    <line x1="200" y1="120" x2="200" y2="280" stroke="#7FD1B9" stroke-width="2" stroke-dasharray="4 6">
      <animate
        attributeName="stroke-dashoffset"
        values="0;20"
        dur="1s"
        repeatCount="indefinite"
      />
    </line>
  </g>
  
  {/* Background Elements */}
  <circle cx="200" cy="200" r="150" fill="#FFB86C" fill-opacity="0.1"/>
  <circle cx="200" cy="200" r="100" stroke="#7FD1B9" stroke-width="2" stroke-dasharray="4 6">
    <animate
      attributeName="r"
      values="95;105;95"
      dur="4s"
      repeatCount="indefinite"
    />
  </circle>
</svg> 