<svg width="400" height="300" viewBox="0 0 400 300" fill="none" xmlns="http://www.w3.org/2000/svg">
  <rect width="400" height="300" fill="#F3F3F3"/>
  
  {/* Lavender Stems */}
  <g transform="translate(200,150)">
    <path d="M0 0C-20 -40 -15 -80 0 -100M0 0C20 -40 15 -80 0 -100" stroke="#7FD1B9" stroke-width="2"/>
    <path d="M-20 0C-40 -40 -35 -80 -20 -100M-20 0C0 -40 -5 -80 -20 -100" stroke="#7FD1B9" stroke-width="2"/>
    <path d="M20 0C0 -40 5 -80 20 -100M20 0C40 -40 35 -80 20 -100" stroke="#7FD1B9" stroke-width="2"/>
  </g>
  
  {/* Lavender Flowers */}
  <g transform="translate(200,150)">
    <circle cx="-20" cy="-90" r="8" fill="#FFB86C"/>
    <circle cx="0" cy="-95" r="8" fill="#FFB86C"/>
    <circle cx="20" cy="-90" r="8" fill="#FFB86C"/>
  </g>
  
  {/* Background Elements */}
  <circle cx="200" cy="150" r="100" fill="#7FD1B9" fill-opacity="0.1"/>
  <circle cx="200" cy="150" r="60" stroke="#7FD1B9" stroke-width="2" stroke-dasharray="4 6"/>
</svg> 