<svg width="400" height="300" viewBox="0 0 400 300" fill="none" xmlns="http://www.w3.org/2000/svg">
  <rect width="400" height="300" fill="#F3F3F3"/>
  
  {/* Lotus Flower */}
  <g transform="translate(200,150)">
    {/* Outer Petals */}
    <path d="M0 0C-20 -40 0 -60 20 -40C20 -20 0 -20 0 0Z" fill="#FFB86C"/>
    <path d="M0 0C20 -40 40 -60 60 -40C60 -20 40 -20 0 0Z" fill="#FFB86C"/>
    <path d="M0 0C40 -20 60 -40 60 -20C40 0 20 0 0 0Z" fill="#FFB86C"/>
    <path d="M0 0C40 20 60 40 60 20C40 0 20 0 0 0Z" fill="#FFB86C"/>
    <path d="M0 0C20 40 40 60 60 40C60 20 40 20 0 0Z" fill="#FFB86C"/>
    <path d="M0 0C-20 40 0 60 20 40C20 20 0 20 0 0Z" fill="#FFB86C"/>
    <path d="M0 0C-40 20 -60 40 -60 20C-40 0 -20 0 0 0Z" fill="#FFB86C"/>
    <path d="M0 0C-40 -20 -60 -40 -60 -20C-40 0 -20 0 0 0Z" fill="#FFB86C"/>
    
    {/* Center */}
    <circle cx="0" cy="0" r="20" fill="#7FD1B9"/>
  </g>
  
  {/* Ripple Effect */}
  <circle cx="200" cy="150" r="80" stroke="#7FD1B9" stroke-width="2" stroke-dasharray="4 6">
    <animate
      attributeName="r"
      values="60;80;60"
      dur="3s"
      repeatCount="indefinite"
    />
  </circle>
  
  <circle cx="200" cy="150" r="100" stroke="#7FD1B9" stroke-width="2" stroke-dasharray="4 6">
    <animate
      attributeName="r"
      values="80;100;80"
      dur="3s"
      repeatCount="indefinite"
    />
  </circle>
  
  {/* Background Elements */}
  <circle cx="100" cy="100" r="40" fill="#FFB86C" fill-opacity="0.1"/>
  <circle cx="300" cy="200" r="60" fill="#7FD1B9" fill-opacity="0.1"/>
</svg> 