<svg width="400" height="300" viewBox="0 0 400 300" fill="none" xmlns="http://www.w3.org/2000/svg">
  <rect width="400" height="300" fill="#F3F3F3"/>
  
  {/* Peppermint Leaves */}
  <g transform="translate(200,150)">
    {/* Leaf 1 */}
    <path d="M0 -50C20 -70 40 -70 50 -50C40 -30 20 -30 0 -50Z" fill="#7FD1B9"/>
    {/* Leaf 2 */}
    <path d="M0 -20C-20 -40 -40 -40 -50 -20C-40 0 -20 0 0 -20Z" fill="#7FD1B9"/>
    {/* Leaf 3 */}
    <path d="M0 -20C20 -40 40 -40 50 -20C40 0 20 0 0 -20Z" fill="#7FD1B9"/>
    {/* Stem */}
    <path d="M0 -50L0 50" stroke="#7FD1B9" stroke-width="2"/>
  </g>
  
  {/* Swirl Effect */}
  <path d="M150 150C200 100 250 100 300 150" 
    stroke="#FFB86C" 
    stroke-width="2"
    stroke-linecap="round"
    stroke-dasharray="4 6"/>
  
  <path d="M100 200C150 150 200 150 250 200" 
    stroke="#FFB86C" 
    stroke-width="2"
    stroke-linecap="round"
    stroke-dasharray="4 6"/>
  
  {/* Background Elements */}
  <circle cx="200" cy="150" r="100" fill="#7FD1B9" fill-opacity="0.1"/>
  <circle cx="200" cy="150" r="60" stroke="#FFB86C" stroke-width="2" stroke-dasharray="4 6"/>
</svg> 