<svg width="400" height="300" viewBox="0 0 400 300" fill="none" xmlns="http://www.w3.org/2000/svg">
  <rect width="400" height="300" fill="#F3F3F3"/>
  
  {/* Journey Path */}
  <path d="M50 250C100 200 150 250 200 150C250 50 300 150 350 100" 
    stroke="#7FD1B9" 
    stroke-width="4"
    stroke-linecap="round"
    stroke-dasharray="8 12"/>
  
  {/* Progress Points */}
  <circle cx="50" cy="250" r="15" fill="#FFB86C"/>
  <circle cx="200" cy="150" r="15" fill="#FFB86C"/>
  <circle cx="350" cy="100" r="15" fill="#FFB86C"/>
  
  {/* Background Elements */}
  <circle cx="100" cy="100" r="60" fill="#7FD1B9" fill-opacity="0.1"/>
  <circle cx="300" cy="200" r="80" fill="#FFB86C" fill-opacity="0.1"/>
  
  {/* Decorative Stars */}
  <path d="M150 80L155 90L165 92L155 98L153 108L150 98L140 92L150 90L150 80Z" fill="#7FD1B9"/>
  <path d="M280 120L285 130L295 132L285 138L283 148L280 138L270 132L280 130L280 120Z" fill="#FFB86C"/>
</svg> 